<svg width="125" height="125" viewBox="0 0 125 125" fill="none" xmlns="http://www.w3.org/2000/svg">
<rect width="125" height="125" rx="20" fill="white"/>
<rect width="125" height="125" rx="20" fill="#DB98ED" fill-opacity="0.8"/>
<path fill-rule="evenodd" clip-rule="evenodd" d="M41.6758 10.4645C37.0653 15.439 34.9598 27.0229 37.6094 32.8391C43.2182 45.1473 56.5483 24.5166 51.2217 11.771C49.0463 6.56291 45.7137 6.10648 41.6758 10.4645ZM62.7914 14.8723C57.9805 19.0964 52.891 28.7905 52.8732 33.765C52.8613 37.0513 55.5418 40.6695 57.984 40.6612C64.2828 40.6411 74.1701 27.2256 74.1903 18.6743C74.2092 10.1764 69.8109 8.70872 62.7914 14.8723ZM78.0954 27.516C73.4778 30.8616 67.0877 41.2457 67.0877 45.4034C67.0877 50.4703 73.6366 51.6547 79.4861 47.6464C87.4291 42.2036 93.0889 30.0353 89.6212 25.8563C87.358 23.1307 83.3545 23.7069 78.0954 27.516ZM35.0783 44.602C35.0783 48.0981 37.364 65.3026 38.1607 67.7981C39.2526 71.2243 43.0831 65.4899 44.495 58.3127C45.6557 52.4122 46.188 51.4105 47.5561 52.5462C48.4677 53.3026 49.5454 54.9683 49.9508 56.2475C50.5235 58.0507 51.051 58.2735 52.2982 57.2386C53.5904 56.1668 54.0658 56.7964 54.7155 60.4371C55.1613 62.9291 56.4274 66.0364 57.5312 67.3405C58.6337 68.6446 60.4748 71.2196 61.6212 73.0631C62.7677 74.9066 65.5335 77.4934 67.7682 78.8117C72.6479 81.6914 72.8601 83.689 68.693 87.5515C65.0806 90.8982 61.1862 91.1994 54.0469 88.6801C46.9716 86.1834 45.952 86.3944 43.8619 90.7773C42.2318 94.1952 42.201 95.9771 43.6023 105.88C45.4992 119.289 46.0706 119.643 57.0901 114.219C84.8304 100.563 84.8387 60.2048 57.1055 46.5522C52.2484 44.1609 46.974 42.6008 42.3172 42.1787C35.1447 41.5279 35.0783 41.5504 35.0783 44.602ZM87.7836 45.2457C83.2075 48.0364 77.9698 54.2249 77.0367 57.9451C75.8856 62.5296 77.2478 64.3767 81.7777 64.3767C89.6745 64.3767 101.686 51.6962 99.7042 45.452C98.7083 42.3139 92.7593 42.2119 87.7836 45.2457Z" fill="black"/>
</svg>
